<?xml version="1.0" encoding="utf-8"?>
<!-- Generator: Adobe Illustrator 16.0.0, SVG Export Plug-In . SVG Version: 6.00 Build 0)  -->
<!DOCTYPE svg PUBLIC "-//W3C//DTD SVG 1.1//EN" "http://www.w3.org/Graphics/SVG/1.1/DTD/svg11.dtd">
<svg version="1.1" id="Capa_1" xmlns="http://www.w3.org/2000/svg" xmlns:xlink="http://www.w3.org/1999/xlink" x="0px" y="0px"
	 width="511.853px" height="595.281px" viewBox="166.83 -1 511.853 595.281" enable-background="new 166.83 -1 511.853 595.281"
	 xml:space="preserve">
<g>
	<polygon fill="#E6FFFF" points="643.476,30.391 201.668,30.391 178.415,123.404 666.73,123.404 	"/>
	<path fill="#B53C1D" d="M201.668,123.404v460.411h441.809V123.404H201.668z"/>
	<g>
		<rect x="248.174" y="269.898" fill="#63C3E6" width="81.387" height="46.507"/>
		<rect x="381.88" y="269.898" fill="#63C3E6" width="81.386" height="46.507"/>
		<rect x="515.585" y="269.898" fill="#63C3E6" width="81.386" height="46.507"/>
		<rect x="248.174" y="362.911" fill="#63C3E6" width="81.387" height="46.507"/>
		<rect x="381.88" y="362.911" fill="#63C3E6" width="81.386" height="46.507"/>
		<rect x="515.585" y="362.911" fill="#63C3E6" width="81.386" height="46.507"/>
	</g>
	<rect x="387.692" y="455.924" fill="#6E6E6E" width="69.76" height="127.892"/>
	<g>
		<path fill="#63C3E6" d="M312.12,193.452c0-13.001-10.41-23.542-23.253-23.542s-23.253,10.54-23.253,23.542v29.94h46.506V193.452z"
			/>
		<path fill="#63C3E6" d="M579.531,193.452c0-13.001-10.41-23.542-23.253-23.542s-23.254,10.54-23.254,23.542v29.94h46.507V193.452z
			"/>
		<path fill="#63C3E6" d="M445.826,193.452c0-13.001-10.411-23.542-23.254-23.542s-23.253,10.54-23.253,23.542v29.94h46.507V193.452
			z"/>
		<path fill="#63C3E6" d="M294.68,455.924c-19.265,0-34.88,16.039-34.88,35.823v45.563h69.76v-45.563
			C329.56,471.963,313.944,455.924,294.68,455.924z"/>
		<path fill="#63C3E6" d="M550.465,455.924c-19.264,0-34.88,16.039-34.88,35.823v45.563h69.76v-45.563
			C585.344,471.963,569.728,455.924,550.465,455.924z"/>
	</g>
	<path fill="#F5601E" d="M472.566,60.077c0-27.953-22.383-50.613-49.994-50.613c-27.61,0-49.994,22.66-49.994,50.613v63.327h99.988
		V60.077z"/>
	<path d="M655.087,28.619c-1.295-5.155-5.948-8.772-11.287-8.772H468.823C457.519,7.07,441.062-1,422.759-1
		s-34.762,8.07-46.064,20.847H201.716c-5.339,0-9.992,3.617-11.287,8.772c0,0-23.232,92.511-23.267,92.65
		c-1.753,6.978,3.646,14.392,11.286,14.392h11.634v435.457c0,0-9.334,0-9.515,0c-14.95,0-15.081,23.163,0,23.163
		c0,0,480.222,0,481.845,0c14.853,0,15.113-23.163,0.004-23.163h-6.981V135.66c0,0,11.581,0,11.634,0
		c7.369,0,13.063-7.313,11.287-14.391L655.087,28.619z M634.718,43.009l17.45,69.488h-167.75V89.334h65.149
		c6.409,0,11.633-5.2,11.633-11.581s-5.224-11.581-11.633-11.581h-65.149v-5.174c0-6.254-0.935-12.292-2.655-17.989H634.718z
		 M461.15,60.998v51.499h-76.783V60.998c0-21.413,17.223-38.835,38.393-38.835S461.15,39.585,461.15,60.998z M210.8,43.009h152.955
		c-1.721,5.697-2.655,11.733-2.655,17.989v5.174H295.95c-6.411,0-11.634,5.2-11.634,11.581s5.224,11.581,11.634,11.581h65.149
		v23.162H193.347L210.8,43.009z M399.49,571.117V466.885h46.535v104.232H399.49z M632.167,571.117H469.294V455.303
		c0-6.396-5.209-11.581-11.634-11.581h-69.804c-6.425,0-11.633,5.186-11.633,11.581v115.813H213.349V135.66h418.817V571.117z"/>
	<path d="M248.251,327.909h81.438c6.425,0,11.633-5.185,11.633-11.581v-46.325c0-6.396-5.208-11.581-11.633-11.581h-81.438
		c-6.425,0-11.634,5.186-11.634,11.581v46.325C236.617,322.724,241.826,327.909,248.251,327.909z M259.885,281.585h58.169v23.162
		h-58.169V281.585z"/>
	<path d="M463.477,258.421H382.04c-6.425,0-11.634,5.186-11.634,11.581v46.325c0,6.396,5.209,11.581,11.634,11.581h81.438
		c6.425,0,11.633-5.186,11.633-11.581v-46.325C475.11,263.607,469.902,258.421,463.477,258.421z M451.844,304.747h-58.169v-23.162
		h58.169V304.747z"/>
	<path d="M515.829,327.909h81.438c6.425,0,11.633-5.185,11.633-11.581v-46.325c0-6.396-5.208-11.581-11.633-11.581h-81.438
		c-6.425,0-11.634,5.186-11.634,11.581v46.325C504.195,322.724,509.404,327.909,515.829,327.909z M527.463,281.585h58.169v23.162
		h-58.169V281.585z"/>
	<path d="M248.251,420.56h81.438c6.425,0,11.633-5.186,11.633-11.581v-46.325c0-6.396-5.208-11.581-11.633-11.581h-81.438
		c-6.425,0-11.634,5.186-11.634,11.581v46.325C236.617,415.375,241.826,420.56,248.251,420.56z M259.885,374.234h58.169v23.162
		h-58.169V374.234z"/>
	<path d="M463.477,351.072H382.04c-6.425,0-11.634,5.186-11.634,11.581v46.325c0,6.396,5.209,11.581,11.634,11.581h81.438
		c6.425,0,11.633-5.186,11.633-11.581v-46.325C475.11,356.258,469.902,351.072,463.477,351.072z M451.844,397.396h-58.169v-23.162
		h58.169V397.396z"/>
	<path d="M515.829,420.56h81.438c6.425,0,11.633-5.186,11.633-11.581v-46.325c0-6.396-5.208-11.581-11.633-11.581h-81.438
		c-6.425,0-11.634,5.186-11.634,11.581v46.325C504.195,415.375,509.404,420.56,515.829,420.56z M527.463,374.234h58.169v23.162
		h-58.169V374.234z"/>
	<path d="M265.702,235.259h46.535c6.425,0,11.634-5.186,11.634-11.581v-29.825c0-19.315-15.656-35.03-34.901-35.03
		c-19.246,0-34.902,15.716-34.902,35.03v29.825C254.067,230.073,259.276,235.259,265.702,235.259z M277.336,193.853
		c0-6.544,5.219-11.869,11.634-11.869s11.633,5.325,11.633,11.869v18.243h-23.267V193.853z"/>
	<path d="M533.279,235.259h46.535c6.425,0,11.634-5.186,11.634-11.581v-29.825c0-19.315-15.656-35.03-34.901-35.03
		c-19.244,0-34.902,15.716-34.902,35.03v29.825C521.646,230.073,526.854,235.259,533.279,235.259z M544.914,193.853
		c0-6.544,5.219-11.869,11.634-11.869s11.634,5.325,11.634,11.869v18.243h-23.268V193.853L544.914,193.853z"/>
	<path d="M399.49,235.259h46.535c6.425,0,11.634-5.186,11.634-11.581v-29.825c0-19.315-15.656-35.03-34.902-35.03
		c-19.244,0-34.901,15.716-34.901,35.03v29.825C387.856,230.073,393.065,235.259,399.49,235.259z M411.125,193.853
		c0-6.544,5.219-11.869,11.634-11.869s11.634,5.325,11.634,11.869v18.243h-23.268V193.853L411.125,193.853z"/>
	<path d="M341.321,524.791v-33.804c0-26.063-20.875-47.266-46.535-47.266c-25.659,0-46.535,21.202-46.535,47.266
		c0,0,0,33.756,0,33.804c0-1.307-7.891,3.031-8.489,3.661c-6.88,7.234-1.409,19.503,8.489,19.503c0,0,92.84,0,93.07,0
		C356.246,547.955,356.411,524.791,341.321,524.791z M271.519,524.791v-33.804c0-13.291,10.438-24.104,23.267-24.104
		c12.83,0,23.269,10.813,23.269,24.104v33.804H271.519z"/>
	<path d="M504.195,547.955c0,0,92.838,0,93.071,0c14.476,0,15.097-23.163,0-23.163v-33.804c0-26.063-20.876-47.266-46.536-47.266
		c-25.659,0-46.535,21.202-46.535,47.266v33.804c-6.425,0-11.633,5.186-11.633,11.582
		C492.562,542.769,497.769,547.955,504.195,547.955z M527.463,490.988c0-13.29,10.438-24.104,23.268-24.104
		c12.83,0,23.269,10.813,23.269,24.104v33.804h-46.535L527.463,490.988L527.463,490.988z"/>
</g>
</svg>
