<?xml version="1.0" encoding="utf-8"?>
<!-- Generator: Adobe Illustrator 16.0.0, SVG Export Plug-In . SVG Version: 6.00 Build 0)  -->
<!DOCTYPE svg PUBLIC "-//W3C//DTD SVG 1.1//EN" "http://www.w3.org/Graphics/SVG/1.1/DTD/svg11.dtd">
<svg version="1.1" id="b4c217a0-9b86-49d5-974d-fd03b0c4b3dd"
	 xmlns="http://www.w3.org/2000/svg" xmlns:xlink="http://www.w3.org/1999/xlink" x="0px" y="0px" width="768px" height="762px"
	 viewBox="0 0 768 762" enable-background="new 0 0 768 762" xml:space="preserve">
<title>apartment rent</title>
<g>
	<g>
		<rect x="459.984" y="295" fill="#F2E77E" width="69.816" height="55"/>
		<rect x="351.198" y="381" fill="#F2E77E" width="69.818" height="55"/>
		<path fill="#26CB8D" d="M733.904,313V196h-52.771v-76h-35.721v76h-52.77v117h-29.227V50h-59.264V25h-78.75V0h-77.937v25h-73.878
			v25h-64.132v262h-34.098V195h-52.771v-76H86.866v76H34.096v117H-0.002v415h77.937V580h53.582v147h209.456V556h90.925v171h126.646
			v1h77.938V581h53.582v147H768V313H733.904z M28.009,363H58.86v30H28.009V363z M28.415,447h30.85v30h-30.85V447z M59.671,561
			H28.821v-30h30.851V561z M140.448,290H69.007v-18h71.441V290z M140.448,264H69.007v-18h71.441V264z M140.448,238H69.007v-18
			h71.441V238z M150.597,363h30.851v30h-30.851V363z M151.002,447h30.851v30h-30.851V447z M182.258,561h-30.85v-30h30.85V561z
			 M308.5,511h-56.829v-31H308.5V511z M308.5,422h-56.829v-31H308.5V422z M308.5,333h-56.829v-31H308.5V333z M308.5,244h-56.829v-31
			H308.5V244z M308.5,155h-56.829v-31H308.5V155z M414.851,511h-56.828v-31h56.828V511z M414.851,422h-56.828v-31h56.828V422z
			 M414.851,333h-56.828v-31h56.828V333z M414.851,244h-56.828v-31h56.828V244z M414.851,155h-56.828v-31h56.828V155z M521.203,511
			h-56.83v-31h56.83V511z M521.203,422h-56.83v-31h56.83V422z M521.203,333h-56.83v-31h56.83V333z M521.203,244h-56.83v-31h56.83
			V244z M521.203,155h-56.83v-31h56.83V155z M586.556,364h30.85v30h-30.85V364z M586.961,448h30.852v30h-30.852V448z M618.217,562
			h-30.85v-30h30.85V562z M698.996,291h-71.441v-18h71.441V291z M698.996,265h-71.441v-18h71.441V265z M698.996,239h-71.441v-18
			h71.441V239z M709.144,364h30.85v30h-30.85V364z M709.549,448H740.4v30h-30.852V448z M740.806,562h-30.852v-30h30.852V562z"/>
		<path fill="#26CB8D" d="M48.052,625.711c-0.227,3.955-0.582,8.381-1.132,13.029l9.926-13.559l0.055,0.227
			c-0.606-3.263-1.584-6.403-2.902-9.331l0.063,0.214L48.052,625.711z"/>
		<path fill="#26CB8D" d="M48.091,625.015l5.82-9.123c-1.238-2.783-3.03-5.134-5.206-6.833c-0.106-0.078-0.213-0.151-0.321-0.225
			C48.416,609.912,48.569,616.238,48.091,625.015z"/>
		<path fill="#26CB8D" d="M44.873,651.924l13.164-13.373l0.037,0.25c0.047-4.422-0.332-8.835-1.128-13.147L46.832,639.47
			C46.301,643.824,45.648,647.975,44.873,651.924z"/>
		<path fill="#26CB8D" d="M60.644,689.316c-2.223,2.868-4.787,5.996-7.617,9.146l14.664-2.646l-0.075,0.218
			c1.223-2.989,2.097-6.178,2.596-9.468l-0.062,0.215L60.644,689.316z"/>
		<path fill="#26CB8D" d="M69.769,677.006c-0.041-0.145-0.086-0.285-0.131-0.426c-0.533,0.854-3.69,5.847-8.604,12.231l9.206-2.454
			C70.727,683.241,70.566,680.023,69.769,677.006z"/>
		<path fill="#26CB8D" d="M44.622,707.008l17.063,0.043l-0.101,0.222c2.325-3.369,4.319-7.065,5.938-11.012l-14.944,2.694
			C49.915,701.891,47.263,704.575,44.622,707.008z"/>
		<path fill="#26CB8D" d="M69.443,676.354l0.139,0.048c-1.374-4.134-4.158-6.68-7.818-7.644l-0.92,19.839
			C66.157,681.687,69.396,676.43,69.443,676.354z"/>
		<path fill="#26CB8D" d="M52.919,698.155c2.797-3.114,5.331-6.208,7.527-9.044l0.939-20.294l0.192-0.106
			c-3.19-0.663-6.46-0.447-9.575,0.633L52.919,698.155z"/>
		<path fill="#2F2E41" d="M0,727h768.001l0,0v13.536c0,11.854-7.803,21.464-17.426,21.464l0,0H17.426C7.803,762,0,752.391,0,740.536
			l0,0V727L0,727z"/>
		<rect x="0" y="716" fill="#3F3D56" width="768.001" height="19"/>
		<polygon fill="#EADD39" points="421.054,354.556 388.664,394.452 373.318,375.552 367.344,382.909 388.644,409.146 
			427.029,361.915 		"/>
		<polygon fill="#EADD39" points="524.156,263.556 491.769,303.452 476.422,284.55 470.447,291.909 491.748,318.146 
			530.133,270.915 		"/>
	</g>
	<g>
		<path fill="#2F2E41" d="M585.904,573.836h15.469l0,0v22.098l0,0l0,0c-8.543,0-15.469-6.925-15.469-15.469l0,0V573.836
			L585.904,573.836z"/>
		<polygon fill="#A0616A" points="576.881,703.294 575.777,708.817 583.51,708.817 583.879,703.294 		"/>
		<path fill="#26CB8D" d="M576.881,707.714c0,0-1.473-1.105-2.209-0.368c-0.736,0.736-3.314,15.1-3.684,15.468
			c-0.369,0.369-11.418,5.894-8.84,6.262s12.521,0.736,13.996,0c1.473-0.735,5.523-7.733,5.523-7.733v6.261h0.736
			c0,0,0.736-6.629,2.578-8.471c1.842-1.843-1.475-8.104-1.475-8.104s0.738-4.052,0.369-4.052
			C583.51,706.975,576.881,707.714,576.881,707.714z"/>
		<polygon fill="#A0616A" points="599.715,699.427 598.611,704.95 606.345,704.95 606.713,699.427 		"/>
		<path fill="#2F2E41" d="M590.877,663.516c0,0,3.684,11.049,4.42,12.153s3.314,21.729,3.314,21.729s-2.578,4.051,0.736,4.42
			c3.314,0.368,1.842-0.737,4.051,0c1.219,0.46,2.58,0.323,3.684-0.369c0,0,1.105-2.209,0.367-2.945
			c-0.736-0.736,0.738-19.889,0.738-19.889l-2.211-6.63l-1.842-20.993c0,0,2.211-5.523,1.105-6.998
			c-1.105-1.473-4.789,1.105-4.789,1.105L590.877,663.516z"/>
		<path fill="#2F2E41" d="M586.088,634.789c0,0-1.104,11.785-1.84,12.521c-0.738,0.737-8.84,21.362-8.84,21.362
			s-2.211,2.577-1.473,12.152c0.734,9.576,2.576,19.152,2.576,19.152s-1.473,5.524,1.105,5.524s3.682-1.475,4.787-0.368
			c1.104,1.104,1.842,0,2.211-0.737c0.367-0.736,1.84-3.314,1.84-4.051c0-0.737,1.475-19.521,1.475-19.521
			s12.154-26.886,13.26-28.358c1.104-1.474,7.365-9.575,6.998-15.101L586.088,634.789z"/>
		<circle fill="#A0616A" cx="595.297" cy="577.334" r="7.734"/>
		<path fill="#A0616A" d="M593.822,583.964c0,0,2.947,6.63,3.314,8.471c0.369,1.842,7.365-3.683,7.365-3.683
			s-3.682-6.262-2.578-9.208L593.822,583.964z"/>
		<path fill="#3F3D56" d="M605.609,587.646c0,0-5.525-4.052-9.576,4.419c-4.051,8.472-5.156,8.104-5.156,8.104
			s-4.789,1.474-3.314,11.785c1.473,10.313-4.787,23.939-2.209,24.677c2.578,0.736,26.518,4.788,26.518,1.842
			s-2.211-14.363-0.369-21.361C613.345,610.113,608.924,585.804,605.609,587.646z"/>
		<path fill="#3F3D56" d="M600.084,589.487c0,0-4.42,6.63-4.051,11.786c0.367,5.156,0.367,8.471,0.367,8.471
			s-7.365,35.357-5.893,35.357s5.893,1.841,6.262,0.736c0.369-1.105,9.574-23.571,9.574-23.571s2.211-22.467-0.367-27.623
			S600.084,589.487,600.084,589.487z"/>
		<path fill="#A0616A" d="M591.244,643.996c0,0-3.682,12.522,1.475,12.892s2.211-12.154,2.211-12.154L591.244,643.996z"/>
		<path fill="#26CB8D" d="M601.047,702.082c0,0-1.289-0.968-1.936-0.322c-0.645,0.646-2.902,13.224-3.225,13.547
			c-0.322,0.322-9.998,5.16-7.74,5.481c2.258,0.323,10.965,0.646,12.256,0c1.291-0.645,4.838-6.771,4.838-6.771v5.481h0.646
			c0,0,0.645-5.806,2.258-7.418c1.611-1.612-1.291-7.096-1.291-7.096s0.646-3.548,0.322-3.548
			C606.853,701.436,601.047,702.082,601.047,702.082z"/>
		<path fill="#2F2E41" d="M591.474,572.265c0.244-0.3,0.566-0.527,0.932-0.66c0.34-0.062,0.691-0.031,1.016,0.088
			c2.311,0.674,4.313,2.13,5.666,4.119c0.264,0.507,0.656,0.934,1.143,1.236c0.314,0.094,0.623,0.212,0.922,0.352
			c0.861,0.568,0.348,1.889-0.146,2.794c-1.268,2.329-1.854,4.968-1.688,7.614c-0.012,0.461,0.125,0.913,0.387,1.291
			c0.416,0.386,0.963,0.604,1.529,0.611c1.789,0.225,3.59,0.319,5.391,0.288c1.764-0.032,3.721-0.281,4.861-1.625
			c1.229-1.443,1.035-3.655,0.236-5.374c-0.799-1.72-2.098-3.155-3.021-4.813c-0.875-1.749-1.564-3.585-2.061-5.478
			c-0.639-2.415-1.666-4.709-3.045-6.793c-1.406-2.099-3.621-3.519-6.115-3.921c-3.346-0.372-6.43,1.688-9.119,3.713
			c-3.02,2.273-6.234,5.088-6.477,8.859c-0.195,3.057,1.639,5.82,2.598,8.729c1.479,4.489,0.859,9.366,0.225,14.053
			c2.729-1.634,5.813-3.902,5.635-7.076c-0.121-2.142-1.736-3.851-2.742-5.744C584.832,579.323,587.984,575.831,591.474,572.265z"/>
	</g>
</g>
</svg>
