<?xml version="1.0" encoding="utf-8"?>
<!-- Generator: Adobe Illustrator 16.0.0, SVG Export Plug-In . SVG Version: 6.00 Build 0)  -->
<!DOCTYPE svg PUBLIC "-//W3C//DTD SVG 1.1//EN" "http://www.w3.org/Graphics/SVG/1.1/DTD/svg11.dtd">
<svg version="1.1" id="Capa_1" xmlns="http://www.w3.org/2000/svg" xmlns:xlink="http://www.w3.org/1999/xlink" x="0px" y="0px"
	 width="545.281px" height="232.542px" viewBox="123.304 311.582 545.281 232.542"
	 enable-background="new 123.304 311.582 545.281 232.542" xml:space="preserve">
<g>
	<g>
		<g>
			<polygon fill="#ED5565" points="621.427,395.303 621.427,432.509 602.824,419.57 514.463,358.098 426.1,419.57 407.498,432.509 
				407.498,395.303 514.463,320.893 			"/>
			<rect x="491.256" y="451.111" fill="#ED5565" width="46.506" height="83.711"/>
		</g>
		<polygon fill="#E6E9ED" points="602.824,419.57 602.824,534.822 537.716,534.822 537.716,451.111 491.209,451.111 
			491.209,534.822 426.1,534.822 426.1,419.57 514.463,358.098 		"/>
		<path d="M426.053,544.124c-5.144,0-9.301-4.158-9.301-9.302V419.57c0-5.144,4.157-9.301,9.301-9.301s9.302,4.157,9.302,9.301
			v115.252C435.355,539.966,431.197,544.124,426.053,544.124z"/>
		<path d="M602.778,544.124c-5.144,0-9.302-4.158-9.302-9.302V419.57c0-5.144,4.158-9.301,9.302-9.301s9.301,4.157,9.301,9.301
			v115.252C612.079,539.966,607.922,544.124,602.778,544.124z"/>
		<path d="M407.461,441.81c-2.939,0-5.841-1.387-7.646-3.99c-2.93-4.214-1.889-10.018,2.325-12.957l106.965-74.41
			c4.213-2.93,10.017-1.897,12.956,2.325c2.93,4.214,1.889,10.018-2.325,12.957l-106.965,74.41
			C411.144,441.27,409.293,441.81,407.461,441.81z"/>
		<path d="M621.371,441.81c-1.832,0-3.684-0.54-5.302-1.665l-106.964-74.41c-4.214-2.93-5.256-8.734-2.326-12.957
			c2.931-4.223,8.734-5.255,12.957-2.325l106.965,74.41c4.213,2.93,5.255,8.733,2.325,12.957
			C627.212,440.424,624.31,441.81,621.371,441.81z"/>
		<path d="M407.461,404.605c-2.939,0-5.841-1.387-7.646-3.99c-2.93-4.214-1.889-10.018,2.325-12.957l106.965-74.41
			c4.213-2.93,10.017-1.897,12.956,2.325c2.93,4.214,1.889,10.018-2.325,12.957l-106.965,74.41
			C411.144,404.065,409.293,404.605,407.461,404.605z"/>
		<path d="M621.371,404.605c-1.832,0-3.684-0.54-5.302-1.665l-106.964-74.41c-4.214-2.93-5.256-8.734-2.326-12.957
			c2.931-4.223,8.734-5.255,12.957-2.325l106.965,74.41c4.213,2.93,5.255,8.733,2.325,12.957
			C627.212,403.219,624.31,404.605,621.371,404.605z"/>
		<path d="M407.451,441.81c-5.144,0-9.301-4.158-9.301-9.302v-37.205c0-5.144,4.157-9.301,9.301-9.301s9.302,4.157,9.302,9.301
			v37.205C416.753,437.652,412.594,441.81,407.451,441.81z"/>
		<path d="M621.381,441.81c-5.145,0-9.302-4.158-9.302-9.302v-37.205c0-5.144,4.157-9.301,9.302-9.301
			c5.144,0,9.301,4.157,9.301,9.301v37.205C630.681,437.652,626.524,441.81,621.381,441.81z"/>
		<path d="M537.669,544.124h-46.506c-5.144,0-9.302-4.158-9.302-9.302v-83.711c0-5.144,4.158-9.301,9.302-9.301h46.506
			c5.144,0,9.302,4.157,9.302,9.301v83.711C546.97,539.966,542.812,544.124,537.669,544.124z M500.464,525.521h27.904v-65.109
			h-27.904V525.521z"/>
	</g>
	<polygon fill="#ED5565" points="374.485,395.303 374.485,432.509 355.883,419.57 267.52,358.098 179.159,419.57 160.556,432.509 
		160.556,395.303 267.52,320.893 	"/>
	<polygon fill="#E6E9ED" points="355.883,419.57 355.883,534.822 290.774,534.822 290.774,451.111 244.267,451.111 244.267,534.822 
		179.159,534.822 179.159,419.57 267.52,358.098 	"/>
	<rect x="244.314" y="451.111" fill="#ED5565" width="46.506" height="83.711"/>
	<path d="M659.284,544.124H132.606c-5.144,0-9.302-4.158-9.302-9.302s4.158-9.301,9.302-9.301h526.678
		c5.144,0,9.302,4.157,9.302,9.301S664.427,544.124,659.284,544.124z"/>
	<path d="M390.945,544.124c-5.144,0-9.302-4.158-9.302-9.302v-74.41c0-5.144,4.158-9.301,9.302-9.301s9.301,4.157,9.301,9.301v74.41
		C400.246,539.966,396.089,544.124,390.945,544.124z"/>
	<path d="M179.112,544.124c-5.144,0-9.301-4.158-9.301-9.302V419.57c0-5.144,4.157-9.301,9.301-9.301s9.302,4.157,9.302,9.301
		v115.252C188.414,539.966,184.256,544.124,179.112,544.124z"/>
	<path d="M355.836,544.124c-5.144,0-9.301-4.158-9.301-9.302V419.57c0-5.144,4.157-9.301,9.301-9.301s9.302,4.157,9.302,9.301
		v115.252C365.137,539.966,360.979,544.124,355.836,544.124z"/>
	<path d="M160.519,441.81c-2.939,0-5.842-1.387-7.646-3.99c-2.931-4.214-1.889-10.018,2.325-12.957l106.964-74.41
		c4.214-2.93,10.018-1.897,12.957,2.325c2.93,4.214,1.888,10.018-2.325,12.957l-106.965,74.41
		C164.202,441.27,162.351,441.81,160.519,441.81z"/>
	<path d="M374.429,441.81c-1.832,0-3.684-0.54-5.302-1.665l-106.965-74.41c-4.213-2.93-5.255-8.734-2.325-12.957
		c2.921-4.223,8.725-5.255,12.957-2.325l106.964,74.41c4.214,2.93,5.256,8.733,2.325,12.957
		C380.27,440.424,377.369,441.81,374.429,441.81z"/>
	<path d="M160.519,404.605c-2.939,0-5.842-1.387-7.646-3.99c-2.931-4.214-1.889-10.018,2.325-12.957l106.964-74.41
		c4.214-2.93,10.018-1.897,12.957,2.325c2.93,4.214,1.888,10.018-2.325,12.957L165.83,402.94
		C164.202,404.065,162.351,404.605,160.519,404.605z"/>
	<path d="M374.429,404.605c-1.832,0-3.684-0.54-5.302-1.665l-106.965-74.41c-4.213-2.93-5.255-8.734-2.325-12.957
		c2.921-4.223,8.725-5.255,12.957-2.325l106.964,74.41c4.214,2.93,5.256,8.733,2.325,12.957
		C380.27,403.219,377.369,404.605,374.429,404.605z"/>
	<path d="M160.51,441.81c-5.144,0-9.301-4.158-9.301-9.302v-37.205c0-5.144,4.157-9.301,9.301-9.301s9.302,4.157,9.302,9.301v37.205
		C169.811,437.652,165.653,441.81,160.51,441.81z"/>
	<path d="M374.438,441.81c-5.144,0-9.301-4.158-9.301-9.302v-37.205c0-5.144,4.157-9.301,9.301-9.301s9.302,4.157,9.302,9.301
		v37.205C383.74,437.652,379.582,441.81,374.438,441.81z"/>
	<path d="M290.727,544.124h-46.506c-5.144,0-9.302-4.158-9.302-9.302v-83.711c0-5.144,4.158-9.301,9.302-9.301h46.506
		c5.144,0,9.301,4.157,9.301,9.301v83.711C300.028,539.966,295.871,544.124,290.727,544.124z M253.522,525.521h27.904v-65.109
		h-27.904V525.521z"/>
</g>
</svg>
