<?xml version="1.0" encoding="utf-8"?>
<!-- Generator: Adobe Illustrator 16.0.0, SVG Export Plug-In . SVG Version: 6.00 Build 0)  -->
<!DOCTYPE svg PUBLIC "-//W3C//DTD SVG 1.1//EN" "http://www.w3.org/Graphics/SVG/1.1/DTD/svg11.dtd">
<svg version="1.1" id="e5378a26-042d-4a36-80f1-957b4ecc48ee"
	 xmlns="http://www.w3.org/2000/svg" xmlns:xlink="http://www.w3.org/1999/xlink" x="0px" y="0px" width="659.145px"
	 height="757.832px" viewBox="0 0 659.145 757.832" enable-background="new 0 0 659.145 757.832" xml:space="preserve">
<g>
	<g>
		<g opacity="0.7">
			
				<linearGradient id="SVGID_1_" gradientUnits="userSpaceOnUse" x1="138.282" y1="340.6199" x2="138.282" y2="194.949" gradientTransform="matrix(1 0 0 1 -0.0605 -150.9199)">
				<stop  offset="0" style="stop-color:#808080;stop-opacity:0.25"/>
				<stop  offset="0.54" style="stop-color:#808080;stop-opacity:0.12"/>
				<stop  offset="1" style="stop-color:#808080;stop-opacity:0.1"/>
			</linearGradient>
			<rect x="101.298" y="44.029" fill="url(#SVGID_1_)" width="73.847" height="145.671"/>
		</g>
		<rect x="103.32" y="46.044" fill="#535461" width="69.806" height="143.657"/>
		<g opacity="0.7">
			
				<linearGradient id="SVGID_2_" gradientUnits="userSpaceOnUse" x1="284.9373" y1="880.3503" x2="284.937" y2="328.6311" gradientTransform="matrix(1 0 0 1 -0.0605 -150.9199)">
				<stop  offset="0" style="stop-color:#808080;stop-opacity:0.25"/>
				<stop  offset="0.54" style="stop-color:#808080;stop-opacity:0.12"/>
				<stop  offset="1" style="stop-color:#808080;stop-opacity:0.1"/>
			</linearGradient>
			<polygon fill="url(#SVGID_2_)" points="508.341,729.43 61.412,729.43 61.412,182.722 286.818,177.711 508.341,182.722 			"/>
		</g>
		<polygon fill="#FFFFFF" points="503.378,729.43 68.385,729.43 68.385,182.722 285.875,28.065 503.378,182.722 		"/>
		<rect x="231.004" y="545.832" fill="#535461" width="109.751" height="183.554"/>
		<rect x="185.119" y="264.517" opacity="0.5" fill="#26CB8D" enable-background="new    " width="201.525" height="125.728"/>
		<rect x="173.125" y="379.235" fill="#535461" width="225.451" height="21.957"/>
		<g opacity="0.1">
			<rect x="185.119" y="264.517" width="201.525" height="49.869"/>
		</g>
		<g opacity="0.7">
			
				<linearGradient id="SVGID_3_" gradientUnits="userSpaceOnUse" x1="290.322" y1="379.9001" x2="290.322" y2="151.4983" gradientTransform="matrix(1 0 0 1 -0.0605 -150.9199)">
				<stop  offset="0" style="stop-color:#808080;stop-opacity:0.25"/>
				<stop  offset="0.54" style="stop-color:#808080;stop-opacity:0.12"/>
				<stop  offset="1" style="stop-color:#808080;stop-opacity:0.1"/>
			</linearGradient>
			<polygon fill="url(#SVGID_3_)" points="532.594,228.979 286.49,38.645 48.302,228.842 29.619,205.43 286.213,0.578 
				550.904,205.293 			"/>
		</g>
		<polygon fill="#26CB8D" points="532.594,230.946 286.49,40.611 48.302,230.807 29.619,207.451 286.213,2.544 550.904,207.305 		
			"/>
		<path fill="#E0E0E0" d="M324.789,629.692c4.395,0,7.96,3.567,7.96,7.967c0,4.396-3.565,7.956-7.96,7.956
			c-4.396,0-7.961-3.562-7.961-7.956C316.828,633.26,320.394,629.692,324.789,629.692z"/>
	</g>
	<rect x="0" y="727.43" fill="#3F3D56" width="659.145" height="2"/>
	<polygon fill="#A0616A" points="532.566,695.831 536.566,715.831 516.566,719.831 519.566,694.831 	"/>
	<polygon fill="#A0616A" points="595.566,691.831 590.566,716.831 566.566,716.831 576.566,686.831 	"/>
	<path fill="#2F2E41" d="M617.565,517.832l4,27l-5,59l-4,22l-17,72c0,0-19,0-22-8l5-41c0,0,4-33,3-37s-16-68-16-68s-22,101-25,110
		s-7,48-7,48s-17,3-18,0s-2-74-2-85s2-17,2-19s-7.879-97.473-7.879-97.473L617.565,517.832z"/>
	<path fill="#2F2E41" d="M576.565,711.832c0,0,5,1,8,0s0-7,0-7h11c0,0,12,27,17,29s21,24,2,24c-11.724-0.149-23.165-3.617-33-10
		c0,0-2-9-11-10s-15-12-15-12l13-24C568.565,701.832,571.565,712.832,576.565,711.832z"/>
	<path fill="#2F2E41" d="M529.565,710.832c0,0-2,4-4,2s-4-7-4-7s-6-3-7,0s-5,19-7,21s-23,23-2,27s25-5,25-5s-3-5,3-7s7-9,7-9l-4-30
		C536.565,702.832,532.565,712.832,529.565,710.832z"/>
	<path fill="#A0616A" d="M640.565,447.832l3,52c0,0,14,33-5,32s-7-33-7-33l-18.603-46.409L640.565,447.832z"/>
	<path fill="#A0616A" d="M486.565,432.832l-3,52c0,0-14,33,5,32s7-33,7-33l18.604-46.409L486.565,432.832z"/>
	<circle fill="#A0616A" cx="566.565" cy="293.831" r="26"/>
	<path fill="#A0616A" d="M587.065,304.332c0,0-7,28,7,35s-44,17-48,0l2-8c0,0,8-10,6-19L587.065,304.332z"/>
	<path fill="#E6E6E6" d="M571.565,339.832c0,0-17.255,1.611-22.628-9.693c0,0-40.372,2.693-49.372,39.693l15,96c0,0-16,28-14,31
		c0,0-10,28,82,29l40-2c0.541-5.685,0.203-11.419-1-17c-2-9-13-72-13-72s30-47,27-54s-7.805-34.602-46.401-45.801
		C589.163,335.031,588.565,340.832,571.565,339.832z"/>
	<path fill="#E6E6E6" d="M622.565,363.832l13,17c0,0,13,71,9,72s-28,9-32,6s-22-62-22-62L622.565,363.832z"/>
	<path fill="#E6E6E6" d="M516.565,358.832l-17,11c0,0-25,70-18,73s46,1,46,1L516.565,358.832z"/>
	<path fill="#2F2E41" d="M594.985,270.563c0,0-9.006-19.514-26.267-15.01c-17.261,4.503-27.019,11.258-27.769,18.012
		s0.375,16.886,0.375,16.886s1.877-13.884,13.885-10.882c6.387,1.597,14.684,1.707,21.053,1.461
		c5.072-0.209,9.354,3.734,9.563,8.807c0.009,0.167,0.011,0.334,0.009,0.501l-0.315,21.494
		C585.517,311.832,610.518,295.831,594.985,270.563z"/>
	<ellipse fill="#A0616A" cx="587.518" cy="293.831" rx="4" ry="5"/>
</g>
</svg>
