<?xml version="1.0" encoding="utf-8"?>
<!-- Generator: Adobe Illustrator 16.0.0, SVG Export Plug-In . SVG Version: 6.00 Build 0)  -->
<!DOCTYPE svg PUBLIC "-//W3C//DTD SVG 1.1//EN" "http://www.w3.org/Graphics/SVG/1.1/DTD/svg11.dtd">
<svg version="1.1" id="a90b5256-b423-42d1-825d-5fdc0dc55c5f"
	 xmlns="http://www.w3.org/2000/svg" xmlns:xlink="http://www.w3.org/1999/xlink" x="0px" y="0px" width="462.395px"
	 height="612.148px" viewBox="0 0 462.395 612.148" enable-background="new 0 0 462.395 612.148" xml:space="preserve">
<g>
	<path fill="#E6E6E6" d="M121.001,182.587V144h-6v38.587c-4.097,1.657-6.072,6.32-4.417,10.417c1.657,4.097,6.32,6.072,10.417,4.416
		s6.072-6.319,4.416-10.416C124.605,184.994,123.011,183.4,121.001,182.587z"/>
	<path fill="#E6E6E6" d="M135.001,572h-41V74H78v498H37c-20.435,0-37,16.566-37,37l0,0v0.002h172.001V609
		C172.001,588.566,155.437,572.002,135.001,572L135.001,572z"/>
	<path fill="#26CB8D" d="M0.083,148h171.835L161.41,16.66C160.614,7.272,152.784,0.045,143.365,0H28.638
		c-9.42,0.045-17.249,7.272-18.046,16.66L0.083,148z"/>
	<path fill="#A0616A" d="M239.34,378.52L239.34,378.52c-6.738-1.121-13.11,3.434-14.231,10.173c-0.009,0.055-0.019,0.11-0.026,0.166
		l-4.837,31.748l16.46,4.366l12.062-29.581c2.578-6.326-0.458-13.545-6.784-16.124C241.131,378.923,240.245,378.672,239.34,378.52z"
		/>
	<path fill="#26CB8D" d="M239.032,420.55c9.135,36.302,5.203,69.506-28.813,95.575c-40.801-11.246-67.937-38.382-84.491-77.817
		c-4.208-10.023,0.507-21.562,10.53-25.77c0.271-0.113,0.546-0.222,0.821-0.322l0,0c7.679-2.823,16.303-0.602,21.659,5.582
		l40.031,46.204l18.778-46.59L239.032,420.55z"/>
	<path fill="#E6E6E6" d="M448.073,611.009c-37.253-1.979-60.396-14.771-66-41l6-11l68.695,31.294c4.828,2.2,6.96,7.897,4.761,12.728
		c-1.065,2.339-3.023,4.153-5.438,5.038L448.073,611.009z"/>
	<path fill="#E6E6E6" d="M419.287,611.269c-19.354-0.586-37.97-0.403-55.608,0.79c-6.438,0.439-12.032-4.382-12.547-10.815
		l-1.06-13.235l-15-24l13-13c21.848,21.759,45.807,40.034,74.264,50.898c2.338,1.603,2.936,4.796,1.333,7.134
		C422.684,610.48,421.032,611.32,419.287,611.269z"/>
	<path fill="#2F2E41" d="M314.073,517.009c-24.716,44.226-49.024,74.04-81,90c-39.339,12.982-68.09-4.22-90.5-39.5l65-43l9.5,9.5
		l86.099-65.52c4.377-4.145,11.275-3.991,15.464,0.345l73.438,90.175l-9,15L314.073,517.009z"/>
	<polygon fill="#2F2E41" points="336.073,569.009 302.073,517.009 310.073,502.009 355.073,549.009 	"/>
	<circle fill="#A0616A" cx="140.073" cy="369.009" r="34"/>
	<path fill="#A0616A" d="M149.073,432.009l-38-13c5.623-8.937,8.088-19.499,7-30h31
		C147.311,404.265,147.045,418.737,149.073,432.009z"/>
	<path fill="#26CB8D" d="M230.073,523.009c-5.697,2.339-6.113,9.922-11.5,12.5c-26.039,12.458-53.589,22.566-72.5,40.5
		c-44.191-30.012-85.154-123.219-32-164c18.145,10.616,34.352,18.215,34,0L230.073,523.009z"/>
	<path opacity="0.2" enable-background="new    " d="M207.073,483.009l-18.5-6.5l-36.5,28.5l-16.361-58.903
		c-1.136-4.086-2.974-2.015-5.613,0.823c-7.972-7.377-20.412-6.896-27.789,1.073c-3.159,3.413-5.007,7.837-5.214,12.482
		c-1.946,42.727,10.938,78.873,42.979,106.523c41.907-8.975,59.692-37.287,67-74l-1.979-1.321
		C205.822,488.849,206.483,485.956,207.073,483.009z"/>
	<path fill="#2F2E41" d="M144.649,324.281c11.215,2.563,23.979,6.192,24.695,9.567c11.537,2.907,20.245,9.87,22.022,20.485
		c0.562,3.468-1.794,6.731-5.261,7.294c-0.369,0.06-0.743,0.087-1.118,0.079c-6.272-0.079-15.691-0.682-21.912-3.278
		c-18.065,11.642-21.099,41.919-13.209,62.527l-12.416-1.139l-12.845-37.602l-3.281,36.124l-28.332-3.746l3.648-46.065
		c1.122-10.855,4.816-21.29,10.777-30.433c0.619-0.918,1.298-1.796,2.028-2.627C118.23,325.549,131.749,321.252,144.649,324.281z"/>
	<polygon fill="#3F3D56" points="208.57,438.428 239.688,475.011 286.363,419.927 254.824,381.659 	"/>
	<path fill="#F2F2F2" d="M278.373,421.187l-37.005-30.276c2.103-5.046,12.195-3.363,12.195-3.363l28.966,29.365
		c1.009,1.022,1.874,2.179,2.571,3.435l0,0L278.373,421.187z"/>
	<path fill="#3F3D56" d="M280.056,419.086l-42.052-32.801l-46.676,70.646l43.943,29.646c4.205,1.684,8.409-1.261,8.409-1.261
		l42.892-65.599L280.056,419.086z"/>
	
		<rect x="256.173" y="389.923" transform="matrix(0.5831 -0.8124 0.8124 0.5831 -223.2949 377.8392)" fill="#26CB8D" width="0.682" height="33.143"/>
	
		<rect x="221.096" y="449.65" transform="matrix(0.5517 -0.8341 0.8341 0.5517 -261.8418 412.8485)" fill="#26CB8D" width="64.032" height="0.68"/>
	
		<rect x="216.66" y="450.113" transform="matrix(0.5915 -0.8063 0.8063 0.5915 -288.5933 366.097)" fill="#26CB8D" width="0.682" height="35.491"/>
	
		<rect x="188.124" y="423.607" transform="matrix(0.5712 -0.8208 0.8208 0.5712 -253.5833 362.4861)" fill="#26CB8D" width="64.041" height="0.682"/>
	
		<rect x="265.696" y="379.964" transform="matrix(0.6763 -0.7367 0.7367 0.6763 -210.4578 326.2097)" fill="#B3B3B3" width="0.42" height="45.166"/>
	
		<rect x="263.738" y="379.698" transform="matrix(0.6616 -0.7498 0.7498 0.6616 -212.7887 334.2483)" fill="#B3B3B3" width="0.421" height="46.386"/>
	
		<rect x="262.222" y="379.703" transform="matrix(0.6404 -0.768 0.768 0.6404 -215.3036 346.5428)" fill="#B3B3B3" width="0.421" height="46.996"/>
	<path fill="#A0616A" d="M225.366,449.169L225.366,449.169c-5.608-3.901-13.317-2.519-17.219,3.091
		c-0.032,0.046-0.063,0.092-0.095,0.139l-17.98,26.61l13,11l23.576-21.557c5.042-4.609,5.393-12.435,0.782-17.477
		C226.813,450.3,226.119,449.692,225.366,449.169z"/>
	<path fill="#26CB8D" d="M207.073,487.009c-7.308,36.713-25.093,65.025-67,74c-32.04-27.65-44.925-63.798-42.979-106.523
		c0.495-10.86,9.699-19.263,20.56-18.768c0.295,0.014,0.589,0.032,0.882,0.06l0,0c8.147,0.741,14.985,6.445,17.176,14.328
		l16.361,58.903l36.938-34.042L207.073,487.009z"/>
</g>
</svg>
