<?xml version="1.0" encoding="utf-8"?>
<!-- Generator: Adobe Illustrator 16.0.0, SVG Export Plug-In . SVG Version: 6.00 Build 0)  -->
<!DOCTYPE svg PUBLIC "-//W3C//DTD SVG 1.1//EN" "http://www.w3.org/Graphics/SVG/1.1/DTD/svg11.dtd">
<svg version="1.1" id="Capa_1" xmlns="http://www.w3.org/2000/svg" xmlns:xlink="http://www.w3.org/1999/xlink" x="0px" y="0px"
	 width="595.281px" height="446.461px" viewBox="123.305 74.409 595.281 446.461"
	 enable-background="new 123.305 74.409 595.281 446.461" xml:space="preserve">
<g>
	<path fill="#E6E9ED" d="M504.657,255.59v255.979H151.21V255.59l176.724-134.672L504.657,255.59z"/>
	<path fill="#CCD1D9" d="M523.26,269.737h167.422v241.832H504.657V255.59L523.26,269.737z"/>
	<rect x="560.465" y="353.448" fill="#E6E9ED" width="74.409" height="27.904"/>
	<g>
		<rect x="560.465" y="381.352" fill="#5D9CEC" width="74.409" height="46.506"/>
		<circle fill="#5D9CEC" cx="327.933" cy="260.436" r="37.205"/>
	</g>
	<rect x="188.415" y="353.448" fill="#F5F7FA" width="74.409" height="27.904"/>
	<rect x="188.415" y="381.352" fill="#5D9CEC" width="74.409" height="46.506"/>
	<rect x="300.029" y="399.955" fill="#ED5565" width="55.808" height="111.614"/>
	<rect x="393.042" y="381.352" fill="#5D9CEC" width="74.41" height="46.506"/>
	<rect x="393.042" y="353.448" fill="#F5F7FA" width="74.41" height="27.904"/>
	<polygon fill="#DA4453" points="634.874,120.918 709.284,241.834 535.453,241.834 376.764,120.918 	"/>
	<polygon fill="#D3374E" points="634.874,120.918 597.67,120.918 672.079,241.834 709.284,241.834 	"/>
	<polygon fill="#ED5565" points="535.453,241.834 709.284,241.834 709.284,269.737 690.681,269.737 523.26,269.737 504.657,255.59 
		327.933,120.918 151.21,255.59 132.607,269.737 132.607,232.532 327.933,83.713 376.764,120.918 	"/>
	<rect x="672.079" y="241.834" fill="#DA4453" width="37.205" height="27.903"/>
	<path d="M132.616,241.834c-2.809,0-5.58-1.266-7.413-3.665c-3.106-4.083-2.315-9.925,1.759-13.04l195.325-148.82
		c4.103-3.115,9.915-2.307,13.041,1.758c3.106,4.084,2.315,9.925-1.758,13.041L138.244,239.927
		C136.56,241.219,134.579,241.834,132.616,241.834z"/>
	<path d="M132.616,279.038c-2.809,0-5.58-1.265-7.413-3.664c-3.106-4.083-2.315-9.925,1.759-13.04l195.325-148.82
		c4.103-3.116,9.915-2.316,13.041,1.758c3.106,4.083,2.315,9.925-1.758,13.04l-195.326,148.82
		C136.56,278.425,134.579,279.038,132.616,279.038z"/>
	<path d="M535.463,251.135c-1.963,0-3.943-0.614-5.627-1.897L322.297,91.116c-4.074-3.116-4.864-8.957-1.758-13.04
		c3.115-4.074,8.938-4.874,13.04-1.758l207.539,158.121c4.073,3.115,4.864,8.957,1.758,13.04
		C541.034,249.87,538.262,251.135,535.463,251.135z"/>
	<path d="M523.25,279.038c-1.962,0-3.943-0.613-5.627-1.897L322.297,128.321c-4.074-3.116-4.864-8.957-1.758-13.04
		c3.115-4.074,8.938-4.874,13.04-1.758l195.326,148.819c4.074,3.116,4.864,8.957,1.758,13.04
		C528.831,277.773,526.059,279.038,523.25,279.038z"/>
	<path d="M709.284,251.135H535.471c-5.144,0-9.301-4.157-9.301-9.301s4.157-9.302,9.301-9.302h173.813
		c5.144,0,9.302,4.158,9.302,9.302S714.427,251.135,709.284,251.135z"/>
	<path d="M132.607,279.038c-5.144,0-9.302-4.157-9.302-9.301v-37.205c0-5.144,4.158-9.301,9.302-9.301s9.301,4.157,9.301,9.301
		v37.205C141.908,274.881,137.751,279.038,132.607,279.038z"/>
	<path d="M709.284,279.038H523.26c-5.144,0-9.302-4.157-9.302-9.301s4.158-9.301,9.302-9.301h186.024
		c5.144,0,9.302,4.157,9.302,9.301S714.427,279.038,709.284,279.038z"/>
	<path d="M709.284,279.038c-5.144,0-9.301-4.157-9.301-9.301v-27.903c0-5.144,4.157-9.302,9.301-9.302s9.302,4.158,9.302,9.302
		v27.903C718.586,274.881,714.427,279.038,709.284,279.038z"/>
	<path d="M151.21,520.871c-5.144,0-9.302-4.158-9.302-9.302V255.571c0-5.144,4.158-9.301,9.302-9.301s9.301,4.157,9.301,9.301
		v255.998C160.51,516.713,156.353,520.871,151.21,520.871z"/>
	<path d="M504.657,520.871c-5.144,0-9.302-4.158-9.302-9.302V255.571c0-5.144,4.158-9.301,9.302-9.301s9.301,4.157,9.301,9.301
		v255.998C513.958,516.713,509.801,520.871,504.657,520.871z"/>
	<path d="M690.681,520.871c-5.144,0-9.301-4.158-9.301-9.302V269.737c0-5.144,4.157-9.301,9.301-9.301s9.302,4.157,9.302,9.301
		v241.832C699.983,516.713,695.825,520.871,690.681,520.871z"/>
	<path d="M709.294,251.135c-3.126,0-6.177-1.572-7.935-4.428l-74.41-120.916c-2.688-4.381-1.33-10.11,3.042-12.798
		c4.39-2.697,10.11-1.34,12.799,3.041l74.409,120.916c2.688,4.381,1.33,10.11-3.041,12.799
		C712.633,250.688,710.958,251.135,709.294,251.135z"/>
	<path d="M634.874,130.219H376.764c-5.144,0-9.301-4.157-9.301-9.301c0-5.145,4.157-9.302,9.301-9.302h258.109
		c5.144,0,9.302,4.157,9.302,9.302C644.176,126.061,640.017,130.219,634.874,130.219z"/>
	<path d="M327.933,306.942c-25.644,0-46.507-20.863-46.507-46.506c0-25.644,20.863-46.507,46.507-46.507
		s46.506,20.863,46.506,46.507C374.439,286.079,353.577,306.942,327.933,306.942z M327.933,232.532
		c-15.385,0-27.904,12.52-27.904,27.904c0,15.384,12.52,27.903,27.904,27.903c15.384,0,27.903-12.52,27.903-27.903
		C355.837,245.052,343.317,232.532,327.933,232.532z"/>
	<path d="M300.029,520.871c-5.144,0-9.301-4.158-9.301-9.302V399.955c0-5.144,4.157-9.302,9.301-9.302s9.302,4.158,9.302,9.302
		v111.614C309.331,516.713,305.173,520.871,300.029,520.871z"/>
	<path d="M355.837,409.256h-55.808c-5.144,0-9.301-4.157-9.301-9.301s4.157-9.302,9.301-9.302h55.808
		c5.144,0,9.302,4.158,9.302,9.302S360.98,409.256,355.837,409.256z"/>
	<path d="M355.837,520.871c-5.144,0-9.301-4.158-9.301-9.302V399.955c0-5.144,4.157-9.302,9.301-9.302s9.302,4.158,9.302,9.302
		v111.614C365.138,516.713,360.98,520.871,355.837,520.871z"/>
	<path d="M262.824,437.16h-74.409c-5.144,0-9.302-4.158-9.302-9.302v-74.41c0-5.144,4.158-9.301,9.302-9.301h74.409
		c5.144,0,9.302,4.157,9.302,9.301v74.41C272.126,433.002,267.968,437.16,262.824,437.16z M197.716,418.557h55.808V362.75h-55.808
		V418.557z"/>
	<path d="M467.452,437.16h-74.41c-5.144,0-9.301-4.158-9.301-9.302v-74.41c0-5.144,4.157-9.301,9.301-9.301h74.41
		c5.144,0,9.301,4.157,9.301,9.301v74.41C476.753,433.002,472.595,437.16,467.452,437.16z M402.343,418.557h55.808V362.75h-55.808
		V418.557z"/>
	<path d="M634.874,437.16h-74.409c-5.144,0-9.302-4.158-9.302-9.302v-74.41c0-5.144,4.158-9.301,9.302-9.301h74.409
		c5.144,0,9.302,4.157,9.302,9.301v74.41C644.176,433.002,640.017,437.16,634.874,437.16z M569.765,418.557h55.808V362.75h-55.808
		V418.557z"/>
	<path d="M327.933,306.942c-5.144,0-9.302-4.157-9.302-9.302v-74.409c0-5.144,4.158-9.302,9.302-9.302s9.301,4.158,9.301,9.302
		v74.409C337.234,302.785,333.077,306.942,327.933,306.942z"/>
	<path d="M365.138,269.737h-74.41c-5.144,0-9.302-4.157-9.302-9.301c0-5.145,4.158-9.302,9.302-9.302h74.41
		c5.144,0,9.301,4.157,9.301,9.302C374.439,265.58,370.282,269.737,365.138,269.737z"/>
	<path d="M709.284,520.871H132.607c-5.144,0-9.302-4.158-9.302-9.302s4.158-9.301,9.302-9.301h576.677
		c5.144,0,9.302,4.157,9.302,9.301S714.427,520.871,709.284,520.871z"/>
	<path d="M643.469,204.629H530.235c-5.144,0-9.301-4.158-9.301-9.302s4.157-9.301,9.301-9.301h113.233
		c5.144,0,9.301,4.157,9.301,9.301S648.612,204.629,643.469,204.629z"/>
	<path d="M620.569,167.424H481.404c-5.144,0-9.302-4.158-9.302-9.302s4.158-9.301,9.302-9.301h139.165
		c5.144,0,9.301,4.157,9.301,9.301S625.713,167.424,620.569,167.424z"/>
	<path d="M262.824,390.653h-74.409c-5.144,0-9.302-4.157-9.302-9.301s4.158-9.302,9.302-9.302h74.409
		c5.144,0,9.302,4.158,9.302,9.302S267.968,390.653,262.824,390.653z"/>
	<path d="M634.874,390.653h-74.409c-5.144,0-9.302-4.157-9.302-9.301s4.158-9.302,9.302-9.302h74.409
		c5.144,0,9.302,4.158,9.302,9.302S640.017,390.653,634.874,390.653z"/>
	<path d="M467.452,390.653h-74.41c-5.144,0-9.301-4.157-9.301-9.301s4.157-9.302,9.301-9.302h74.41c5.144,0,9.301,4.158,9.301,9.302
		S472.595,390.653,467.452,390.653z"/>
</g>
</svg>
